<mxfile host="app.diagrams.net" agent="Mozilla/5.0 (Macintosh; Intel Mac OS X 10_15_7) AppleWebKit/537.36 (KHTML, like Gecko) Chrome/138.0.0.0 Safari/537.36" version="28.1.0">
  <diagram name="Page-1" id="sr5t4fv4FCllP_WT2feZ">
    <mxGraphModel dx="2036" dy="1860" grid="1" gridSize="10" guides="1" tooltips="1" connect="1" arrows="1" fold="1" page="1" pageScale="1" pageWidth="850" pageHeight="1100" math="0" shadow="0">
      <root>
        <mxCell id="0" />
        <mxCell id="1" parent="0" />
        <mxCell id="tWYqNwP9_KPiIrIVjZ15-1" value="Region" style="points=[[0,0],[0.25,0],[0.5,0],[0.75,0],[1,0],[1,0.25],[1,0.5],[1,0.75],[1,1],[0.75,1],[0.5,1],[0.25,1],[0,1],[0,0.75],[0,0.5],[0,0.25]];outlineConnect=0;gradientColor=none;html=1;whiteSpace=wrap;fontSize=12;fontStyle=0;container=1;pointerEvents=0;collapsible=0;recursiveResize=0;shape=mxgraph.aws4.group;grIcon=mxgraph.aws4.group_region;strokeColor=#00A4A6;fillColor=none;verticalAlign=top;align=left;spacingLeft=30;fontColor=#147EBA;dashed=1;" vertex="1" parent="1">
          <mxGeometry x="-100" y="40" width="1050" height="600" as="geometry" />
        </mxCell>
        <mxCell id="tWYqNwP9_KPiIrIVjZ15-12" value="" style="sketch=0;outlineConnect=0;fontColor=#232F3E;gradientColor=none;fillColor=#7AA116;strokeColor=none;dashed=0;verticalLabelPosition=bottom;verticalAlign=top;align=center;html=1;fontSize=12;fontStyle=0;aspect=fixed;pointerEvents=1;shape=mxgraph.aws4.bucket_with_objects;" vertex="1" parent="tWYqNwP9_KPiIrIVjZ15-1">
          <mxGeometry x="970" y="340" width="55.77" height="58" as="geometry" />
        </mxCell>
        <mxCell id="tWYqNwP9_KPiIrIVjZ15-28" value="" style="sketch=0;outlineConnect=0;fontColor=#232F3E;gradientColor=none;fillColor=#8C4FFF;strokeColor=none;dashed=0;verticalLabelPosition=bottom;verticalAlign=top;align=center;html=1;fontSize=12;fontStyle=0;aspect=fixed;pointerEvents=1;shape=mxgraph.aws4.router;" vertex="1" parent="tWYqNwP9_KPiIrIVjZ15-1">
          <mxGeometry x="60" y="190" width="50" height="50" as="geometry" />
        </mxCell>
        <mxCell id="tWYqNwP9_KPiIrIVjZ15-19" value="web-tier" style="points=[[0,0],[0.25,0],[0.5,0],[0.75,0],[1,0],[1,0.25],[1,0.5],[1,0.75],[1,1],[0.75,1],[0.5,1],[0.25,1],[0,1],[0,0.75],[0,0.5],[0,0.25]];outlineConnect=0;gradientColor=none;html=1;whiteSpace=wrap;fontSize=12;fontStyle=0;container=1;pointerEvents=0;collapsible=0;recursiveResize=0;shape=mxgraph.aws4.group;grIcon=mxgraph.aws4.group_aws_cloud;strokeColor=#232F3E;fillColor=none;verticalAlign=top;align=left;spacingLeft=30;fontColor=#232F3E;dashed=0;" vertex="1" parent="tWYqNwP9_KPiIrIVjZ15-1">
          <mxGeometry x="170" y="20" width="370" height="130" as="geometry" />
        </mxCell>
        <mxCell id="tWYqNwP9_KPiIrIVjZ15-18" value="Cloudfront" style="sketch=0;outlineConnect=0;fontColor=#232F3E;gradientColor=none;strokeColor=#ffffff;fillColor=#232F3E;dashed=0;verticalLabelPosition=middle;verticalAlign=bottom;align=center;html=1;whiteSpace=wrap;fontSize=10;fontStyle=1;spacing=3;shape=mxgraph.aws4.productIcon;prIcon=mxgraph.aws4.cloudfront;" vertex="1" parent="tWYqNwP9_KPiIrIVjZ15-19">
          <mxGeometry x="180" y="22.5" width="50" height="85" as="geometry" />
        </mxCell>
        <mxCell id="tWYqNwP9_KPiIrIVjZ15-13" value="" style="sketch=0;points=[[0,0,0],[0.25,0,0],[0.5,0,0],[0.75,0,0],[1,0,0],[0,1,0],[0.25,1,0],[0.5,1,0],[0.75,1,0],[1,1,0],[0,0.25,0],[0,0.5,0],[0,0.75,0],[1,0.25,0],[1,0.5,0],[1,0.75,0]];outlineConnect=0;fontColor=#232F3E;fillColor=#7AA116;strokeColor=#ffffff;dashed=0;verticalLabelPosition=bottom;verticalAlign=top;align=center;html=1;fontSize=12;fontStyle=0;aspect=fixed;shape=mxgraph.aws4.resourceIcon;resIcon=mxgraph.aws4.s3;" vertex="1" parent="tWYqNwP9_KPiIrIVjZ15-19">
          <mxGeometry x="280" y="30" width="48" height="48" as="geometry" />
        </mxCell>
        <mxCell id="tWYqNwP9_KPiIrIVjZ15-65" style="rounded=0;orthogonalLoop=1;jettySize=auto;html=1;" edge="1" parent="tWYqNwP9_KPiIrIVjZ15-19" source="tWYqNwP9_KPiIrIVjZ15-17" target="tWYqNwP9_KPiIrIVjZ15-18">
          <mxGeometry relative="1" as="geometry" />
        </mxCell>
        <mxCell id="tWYqNwP9_KPiIrIVjZ15-17" value="Route 53" style="sketch=0;outlineConnect=0;fontColor=#232F3E;gradientColor=none;strokeColor=#ffffff;fillColor=#232F3E;dashed=0;verticalLabelPosition=middle;verticalAlign=bottom;align=center;html=1;whiteSpace=wrap;fontSize=10;fontStyle=1;spacing=3;shape=mxgraph.aws4.productIcon;prIcon=mxgraph.aws4.route_53;" vertex="1" parent="tWYqNwP9_KPiIrIVjZ15-19">
          <mxGeometry x="70" y="30" width="50" height="82" as="geometry" />
        </mxCell>
        <mxCell id="tWYqNwP9_KPiIrIVjZ15-40" value="s3/portal-frontend" style="text;strokeColor=none;align=center;fillColor=none;html=1;verticalAlign=middle;whiteSpace=wrap;rounded=0;" vertex="1" parent="tWYqNwP9_KPiIrIVjZ15-19">
          <mxGeometry x="274" y="90" width="60" height="30" as="geometry" />
        </mxCell>
        <mxCell id="tWYqNwP9_KPiIrIVjZ15-66" style="rounded=0;orthogonalLoop=1;jettySize=auto;html=1;entryX=0;entryY=0.75;entryDx=0;entryDy=0;entryPerimeter=0;" edge="1" parent="tWYqNwP9_KPiIrIVjZ15-19" source="tWYqNwP9_KPiIrIVjZ15-18" target="tWYqNwP9_KPiIrIVjZ15-13">
          <mxGeometry relative="1" as="geometry" />
        </mxCell>
        <mxCell id="tWYqNwP9_KPiIrIVjZ15-79" value="DNS" style="text;strokeColor=none;align=center;fillColor=none;html=1;verticalAlign=middle;whiteSpace=wrap;rounded=0;" vertex="1" parent="tWYqNwP9_KPiIrIVjZ15-19">
          <mxGeometry x="70" y="100" width="60" height="30" as="geometry" />
        </mxCell>
        <mxCell id="tWYqNwP9_KPiIrIVjZ15-41" value="s3/image storage" style="text;strokeColor=none;align=center;fillColor=none;html=1;verticalAlign=middle;whiteSpace=wrap;rounded=0;" vertex="1" parent="tWYqNwP9_KPiIrIVjZ15-1">
          <mxGeometry x="965.77" y="410" width="60" height="30" as="geometry" />
        </mxCell>
        <mxCell id="tWYqNwP9_KPiIrIVjZ15-42" value="Router" style="text;strokeColor=none;align=center;fillColor=none;html=1;verticalAlign=middle;whiteSpace=wrap;rounded=0;" vertex="1" parent="tWYqNwP9_KPiIrIVjZ15-1">
          <mxGeometry x="55" y="250" width="60" height="30" as="geometry" />
        </mxCell>
        <mxCell id="tWYqNwP9_KPiIrIVjZ15-2" value="VPC" style="points=[[0,0],[0.25,0],[0.5,0],[0.75,0],[1,0],[1,0.25],[1,0.5],[1,0.75],[1,1],[0.75,1],[0.5,1],[0.25,1],[0,1],[0,0.75],[0,0.5],[0,0.25]];outlineConnect=0;gradientColor=none;html=1;whiteSpace=wrap;fontSize=12;fontStyle=0;container=1;pointerEvents=0;collapsible=0;recursiveResize=0;shape=mxgraph.aws4.group;grIcon=mxgraph.aws4.group_vpc2;strokeColor=#8C4FFF;fillColor=none;verticalAlign=top;align=left;spacingLeft=30;fontColor=#AAB7B8;dashed=0;" vertex="1" parent="1">
          <mxGeometry x="20" y="220" width="818" height="380" as="geometry" />
        </mxCell>
        <mxCell id="tWYqNwP9_KPiIrIVjZ15-3" value="Public subnet" style="points=[[0,0],[0.25,0],[0.5,0],[0.75,0],[1,0],[1,0.25],[1,0.5],[1,0.75],[1,1],[0.75,1],[0.5,1],[0.25,1],[0,1],[0,0.75],[0,0.5],[0,0.25]];outlineConnect=0;gradientColor=none;html=1;whiteSpace=wrap;fontSize=12;fontStyle=0;container=1;pointerEvents=0;collapsible=0;recursiveResize=0;shape=mxgraph.aws4.group;grIcon=mxgraph.aws4.group_security_group;grStroke=0;strokeColor=#7AA116;fillColor=#F2F6E8;verticalAlign=top;align=left;spacingLeft=30;fontColor=#248814;dashed=0;" vertex="1" parent="tWYqNwP9_KPiIrIVjZ15-2">
          <mxGeometry x="50" y="80" width="330" height="280" as="geometry" />
        </mxCell>
        <mxCell id="tWYqNwP9_KPiIrIVjZ15-5" value="Security Group" style="points=[[0,0],[0.25,0],[0.5,0],[0.75,0],[1,0],[1,0.25],[1,0.5],[1,0.75],[1,1],[0.75,1],[0.5,1],[0.25,1],[0,1],[0,0.75],[0,0.5],[0,0.25]];outlineConnect=0;gradientColor=none;html=1;whiteSpace=wrap;fontSize=12;fontStyle=0;container=1;pointerEvents=0;collapsible=0;recursiveResize=0;shape=mxgraph.aws4.group;grIcon=mxgraph.aws4.group_ec2_instance_contents;strokeColor=#D86613;fillColor=none;verticalAlign=top;align=left;spacingLeft=30;fontColor=#D86613;dashed=0;" vertex="1" parent="tWYqNwP9_KPiIrIVjZ15-3">
          <mxGeometry y="40" width="300" height="235" as="geometry" />
        </mxCell>
        <mxCell id="tWYqNwP9_KPiIrIVjZ15-7" value="" style="sketch=0;points=[[0,0,0],[0.25,0,0],[0.5,0,0],[0.75,0,0],[1,0,0],[0,1,0],[0.25,1,0],[0.5,1,0],[0.75,1,0],[1,1,0],[0,0.25,0],[0,0.5,0],[0,0.75,0],[1,0.25,0],[1,0.5,0],[1,0.75,0]];outlineConnect=0;fontColor=#232F3E;fillColor=#ED7100;strokeColor=#ffffff;dashed=0;verticalLabelPosition=bottom;verticalAlign=top;align=center;html=1;fontSize=12;fontStyle=0;aspect=fixed;shape=mxgraph.aws4.resourceIcon;resIcon=mxgraph.aws4.ec2;" vertex="1" parent="tWYqNwP9_KPiIrIVjZ15-5">
          <mxGeometry x="30" y="30" width="55" height="55" as="geometry" />
        </mxCell>
        <mxCell id="tWYqNwP9_KPiIrIVjZ15-50" value="EC2/t2 small" style="text;strokeColor=none;align=center;fillColor=none;html=1;verticalAlign=middle;whiteSpace=wrap;rounded=0;" vertex="1" parent="tWYqNwP9_KPiIrIVjZ15-5">
          <mxGeometry x="30" y="90" width="60" height="30" as="geometry" />
        </mxCell>
        <mxCell id="tWYqNwP9_KPiIrIVjZ15-20" value="EC2 instance contents" style="points=[[0,0],[0.25,0],[0.5,0],[0.75,0],[1,0],[1,0.25],[1,0.5],[1,0.75],[1,1],[0.75,1],[0.5,1],[0.25,1],[0,1],[0,0.75],[0,0.5],[0,0.25]];outlineConnect=0;gradientColor=none;html=1;whiteSpace=wrap;fontSize=12;fontStyle=0;container=1;pointerEvents=0;collapsible=0;recursiveResize=0;shape=mxgraph.aws4.group;grIcon=mxgraph.aws4.group_ec2_instance_contents;strokeColor=#D86613;fillColor=none;verticalAlign=top;align=left;spacingLeft=30;fontColor=#D86613;dashed=0;" vertex="1" parent="tWYqNwP9_KPiIrIVjZ15-5">
          <mxGeometry x="110" y="30" width="176.2" height="190" as="geometry" />
        </mxCell>
        <mxCell id="tWYqNwP9_KPiIrIVjZ15-52" value="" style="points=[];aspect=fixed;html=1;align=center;shadow=0;dashed=0;fillColor=#FF6A00;strokeColor=none;shape=mxgraph.alibaba_cloud.redis_kvstore;" vertex="1" parent="tWYqNwP9_KPiIrIVjZ15-20">
          <mxGeometry x="10" y="41" width="31.7" height="25" as="geometry" />
        </mxCell>
        <mxCell id="tWYqNwP9_KPiIrIVjZ15-53" value="" style="sketch=0;points=[[0,0,0],[0.25,0,0],[0.5,0,0],[0.75,0,0],[1,0,0],[0,1,0],[0.25,1,0],[0.5,1,0],[0.75,1,0],[1,1,0],[0,0.25,0],[0,0.5,0],[0,0.75,0],[1,0.25,0],[1,0.5,0],[1,0.75,0]];outlineConnect=0;fontColor=#232F3E;fillColor=#8C4FFF;strokeColor=#ffffff;dashed=0;verticalLabelPosition=bottom;verticalAlign=top;align=center;html=1;fontSize=12;fontStyle=0;aspect=fixed;shape=mxgraph.aws4.resourceIcon;resIcon=mxgraph.aws4.api_gateway;" vertex="1" parent="tWYqNwP9_KPiIrIVjZ15-20">
          <mxGeometry x="60" y="31" width="35" height="35" as="geometry" />
        </mxCell>
        <mxCell id="tWYqNwP9_KPiIrIVjZ15-54" value="redis" style="text;strokeColor=none;align=center;fillColor=none;html=1;verticalAlign=middle;whiteSpace=wrap;rounded=0;" vertex="1" parent="tWYqNwP9_KPiIrIVjZ15-20">
          <mxGeometry x="-4.15" y="66" width="60" height="30" as="geometry" />
        </mxCell>
        <mxCell id="tWYqNwP9_KPiIrIVjZ15-55" value="&lt;font style=&quot;font-size: 11px;&quot;&gt;api-gateway&lt;/font&gt;" style="text;strokeColor=none;align=center;fillColor=none;html=1;verticalAlign=middle;whiteSpace=wrap;rounded=0;" vertex="1" parent="tWYqNwP9_KPiIrIVjZ15-20">
          <mxGeometry x="41.7" y="66" width="71.5" height="30" as="geometry" />
        </mxCell>
        <mxCell id="tWYqNwP9_KPiIrIVjZ15-56" value="" style="sketch=0;points=[[0,0,0],[0.25,0,0],[0.5,0,0],[0.75,0,0],[1,0,0],[0,1,0],[0.25,1,0],[0.5,1,0],[0.75,1,0],[1,1,0],[0,0.25,0],[0,0.5,0],[0,0.75,0],[1,0.25,0],[1,0.5,0],[1,0.75,0]];outlineConnect=0;fontColor=#232F3E;fillColor=#01A88D;strokeColor=#ffffff;dashed=0;verticalLabelPosition=bottom;verticalAlign=top;align=center;html=1;fontSize=12;fontStyle=0;aspect=fixed;shape=mxgraph.aws4.resourceIcon;resIcon=mxgraph.aws4.application_discovery_service;" vertex="1" parent="tWYqNwP9_KPiIrIVjZ15-20">
          <mxGeometry x="119.25" y="31" width="38" height="38" as="geometry" />
        </mxCell>
        <mxCell id="tWYqNwP9_KPiIrIVjZ15-57" value="discovery service" style="text;strokeColor=none;align=center;fillColor=none;html=1;verticalAlign=middle;whiteSpace=wrap;rounded=0;" vertex="1" parent="tWYqNwP9_KPiIrIVjZ15-20">
          <mxGeometry x="108.25" y="69" width="60" height="30" as="geometry" />
        </mxCell>
        <mxCell id="tWYqNwP9_KPiIrIVjZ15-58" value="" style="image;aspect=fixed;perimeter=ellipsePerimeter;html=1;align=center;shadow=0;dashed=0;fontColor=#4277BB;labelBackgroundColor=default;fontSize=12;spacingTop=3;image=img/lib/ibm/infrastructure/mobile_backend.svg;" vertex="1" parent="tWYqNwP9_KPiIrIVjZ15-20">
          <mxGeometry x="60" y="110" width="46" height="46" as="geometry" />
        </mxCell>
        <mxCell id="tWYqNwP9_KPiIrIVjZ15-59" value="mobile backend" style="text;strokeColor=none;align=center;fillColor=none;html=1;verticalAlign=middle;whiteSpace=wrap;rounded=0;" vertex="1" parent="tWYqNwP9_KPiIrIVjZ15-20">
          <mxGeometry x="53.19999999999999" y="156" width="60" height="30" as="geometry" />
        </mxCell>
        <mxCell id="tWYqNwP9_KPiIrIVjZ15-4" value="Private subnet" style="points=[[0,0],[0.25,0],[0.5,0],[0.75,0],[1,0],[1,0.25],[1,0.5],[1,0.75],[1,1],[0.75,1],[0.5,1],[0.25,1],[0,1],[0,0.75],[0,0.5],[0,0.25]];outlineConnect=0;gradientColor=none;html=1;whiteSpace=wrap;fontSize=12;fontStyle=0;container=1;pointerEvents=0;collapsible=0;recursiveResize=0;shape=mxgraph.aws4.group;grIcon=mxgraph.aws4.group_security_group;grStroke=0;strokeColor=#00A4A6;fillColor=#E6F6F7;verticalAlign=top;align=left;spacingLeft=30;fontColor=#147EBA;dashed=0;" vertex="1" parent="tWYqNwP9_KPiIrIVjZ15-2">
          <mxGeometry x="420" y="80" width="210" height="275" as="geometry" />
        </mxCell>
        <mxCell id="tWYqNwP9_KPiIrIVjZ15-9" value="Security Group" style="points=[[0,0],[0.25,0],[0.5,0],[0.75,0],[1,0],[1,0.25],[1,0.5],[1,0.75],[1,1],[0.75,1],[0.5,1],[0.25,1],[0,1],[0,0.75],[0,0.5],[0,0.25]];outlineConnect=0;gradientColor=none;html=1;whiteSpace=wrap;fontSize=12;fontStyle=0;container=1;pointerEvents=0;collapsible=0;recursiveResize=0;shape=mxgraph.aws4.group;grIcon=mxgraph.aws4.group_ec2_instance_contents;strokeColor=#D86613;fillColor=none;verticalAlign=top;align=left;spacingLeft=30;fontColor=#D86613;dashed=0;" vertex="1" parent="tWYqNwP9_KPiIrIVjZ15-4">
          <mxGeometry x="40" y="100" width="130" height="168" as="geometry" />
        </mxCell>
        <mxCell id="tWYqNwP9_KPiIrIVjZ15-8" value="" style="sketch=0;points=[[0,0,0],[0.25,0,0],[0.5,0,0],[0.75,0,0],[1,0,0],[0,1,0],[0.25,1,0],[0.5,1,0],[0.75,1,0],[1,1,0],[0,0.25,0],[0,0.5,0],[0,0.75,0],[1,0.25,0],[1,0.5,0],[1,0.75,0]];outlineConnect=0;fontColor=#232F3E;fillColor=#C925D1;strokeColor=#ffffff;dashed=0;verticalLabelPosition=bottom;verticalAlign=top;align=center;html=1;fontSize=12;fontStyle=0;aspect=fixed;shape=mxgraph.aws4.resourceIcon;resIcon=mxgraph.aws4.rds;" vertex="1" parent="tWYqNwP9_KPiIrIVjZ15-9">
          <mxGeometry x="26" y="35" width="78" height="78" as="geometry" />
        </mxCell>
        <mxCell id="tWYqNwP9_KPiIrIVjZ15-49" value="RDS" style="text;strokeColor=none;align=center;fillColor=none;html=1;verticalAlign=middle;whiteSpace=wrap;rounded=0;" vertex="1" parent="tWYqNwP9_KPiIrIVjZ15-9">
          <mxGeometry x="35" y="120" width="60" height="30" as="geometry" />
        </mxCell>
        <mxCell id="tWYqNwP9_KPiIrIVjZ15-46" value="Route Tables" style="text;strokeColor=none;align=center;fillColor=none;html=1;verticalAlign=middle;whiteSpace=wrap;rounded=0;" vertex="1" parent="tWYqNwP9_KPiIrIVjZ15-4">
          <mxGeometry x="-32.52999999999997" y="180" width="60" height="30" as="geometry" />
        </mxCell>
        <mxCell id="tWYqNwP9_KPiIrIVjZ15-47" value="" style="sketch=0;outlineConnect=0;fontColor=#232F3E;gradientColor=none;fillColor=#8C4FFF;strokeColor=none;dashed=0;verticalLabelPosition=bottom;verticalAlign=top;align=center;html=1;fontSize=12;fontStyle=0;aspect=fixed;pointerEvents=1;shape=mxgraph.aws4.route_table;" vertex="1" parent="tWYqNwP9_KPiIrIVjZ15-4">
          <mxGeometry x="-22.529999999999973" y="130" width="40" height="38.98" as="geometry" />
        </mxCell>
        <mxCell id="tWYqNwP9_KPiIrIVjZ15-16" style="edgeStyle=orthogonalEdgeStyle;rounded=0;orthogonalLoop=1;jettySize=auto;html=1;exitX=0;exitY=0;exitDx=0;exitDy=0;entryX=0.05;entryY=0.035;entryDx=0;entryDy=0;entryPerimeter=0;" edge="1" parent="tWYqNwP9_KPiIrIVjZ15-2" source="tWYqNwP9_KPiIrIVjZ15-3" target="tWYqNwP9_KPiIrIVjZ15-3">
          <mxGeometry relative="1" as="geometry" />
        </mxCell>
        <mxCell id="tWYqNwP9_KPiIrIVjZ15-27" value="" style="sketch=0;outlineConnect=0;fontColor=#232F3E;gradientColor=none;fillColor=#8C4FFF;strokeColor=none;dashed=0;verticalLabelPosition=bottom;verticalAlign=top;align=center;html=1;fontSize=12;fontStyle=0;aspect=fixed;pointerEvents=1;shape=mxgraph.aws4.route_table;" vertex="1" parent="tWYqNwP9_KPiIrIVjZ15-2">
          <mxGeometry x="20" y="210" width="40" height="38.98" as="geometry" />
        </mxCell>
        <mxCell id="tWYqNwP9_KPiIrIVjZ15-29" value="" style="sketch=0;outlineConnect=0;fontColor=#232F3E;gradientColor=none;fillColor=#8C4FFF;strokeColor=none;dashed=0;verticalLabelPosition=bottom;verticalAlign=top;align=center;html=1;fontSize=12;fontStyle=0;aspect=fixed;pointerEvents=1;shape=mxgraph.aws4.endpoints;" vertex="1" parent="tWYqNwP9_KPiIrIVjZ15-2">
          <mxGeometry x="780" y="250" width="59" height="59" as="geometry" />
        </mxCell>
        <mxCell id="tWYqNwP9_KPiIrIVjZ15-48" value="Route Tables" style="text;strokeColor=none;align=center;fillColor=none;html=1;verticalAlign=middle;whiteSpace=wrap;rounded=0;" vertex="1" parent="tWYqNwP9_KPiIrIVjZ15-2">
          <mxGeometry x="10" y="260" width="60" height="30" as="geometry" />
        </mxCell>
        <mxCell id="tWYqNwP9_KPiIrIVjZ15-60" value="vpc endpoint" style="text;strokeColor=none;align=center;fillColor=none;html=1;verticalAlign=middle;whiteSpace=wrap;rounded=0;" vertex="1" parent="tWYqNwP9_KPiIrIVjZ15-2">
          <mxGeometry x="780" y="315" width="60" height="30" as="geometry" />
        </mxCell>
        <mxCell id="tWYqNwP9_KPiIrIVjZ15-62" style="edgeStyle=orthogonalEdgeStyle;rounded=0;orthogonalLoop=1;jettySize=auto;html=1;entryX=0.5;entryY=1;entryDx=0;entryDy=0;" edge="1" parent="tWYqNwP9_KPiIrIVjZ15-2" source="tWYqNwP9_KPiIrIVjZ15-59" target="tWYqNwP9_KPiIrIVjZ15-60">
          <mxGeometry relative="1" as="geometry">
            <mxPoint x="740" y="290" as="targetPoint" />
            <Array as="points">
              <mxPoint x="243" y="360" />
              <mxPoint x="810" y="360" />
            </Array>
          </mxGeometry>
        </mxCell>
        <mxCell id="tWYqNwP9_KPiIrIVjZ15-22" value="" style="sketch=0;outlineConnect=0;fontColor=#232F3E;gradientColor=none;fillColor=#232F3D;strokeColor=none;dashed=0;verticalLabelPosition=bottom;verticalAlign=top;align=center;html=1;fontSize=12;fontStyle=0;aspect=fixed;pointerEvents=1;shape=mxgraph.aws4.internet_alt22;" vertex="1" parent="1">
          <mxGeometry x="-260" y="140" width="70" height="70" as="geometry" />
        </mxCell>
        <mxCell id="tWYqNwP9_KPiIrIVjZ15-34" style="edgeStyle=orthogonalEdgeStyle;rounded=0;orthogonalLoop=1;jettySize=auto;html=1;startArrow=none;startFill=0;" edge="1" parent="1" source="tWYqNwP9_KPiIrIVjZ15-26" target="tWYqNwP9_KPiIrIVjZ15-22">
          <mxGeometry relative="1" as="geometry" />
        </mxCell>
        <mxCell id="tWYqNwP9_KPiIrIVjZ15-64" style="edgeStyle=orthogonalEdgeStyle;rounded=0;orthogonalLoop=1;jettySize=auto;html=1;startArrow=classic;startFill=1;" edge="1" parent="1" source="tWYqNwP9_KPiIrIVjZ15-26" target="tWYqNwP9_KPiIrIVjZ15-28">
          <mxGeometry relative="1" as="geometry">
            <mxPoint x="-50" y="258" as="targetPoint" />
            <Array as="points">
              <mxPoint x="-60" y="258" />
              <mxPoint x="-60" y="259" />
            </Array>
          </mxGeometry>
        </mxCell>
        <mxCell id="tWYqNwP9_KPiIrIVjZ15-26" value="" style="sketch=0;outlineConnect=0;fontColor=#232F3E;gradientColor=none;fillColor=#8C4FFF;strokeColor=none;dashed=0;verticalLabelPosition=bottom;verticalAlign=top;align=center;html=1;fontSize=12;fontStyle=0;aspect=fixed;pointerEvents=1;shape=mxgraph.aws4.internet_gateway;" vertex="1" parent="1">
          <mxGeometry x="-130" y="228" width="60" height="60" as="geometry" />
        </mxCell>
        <mxCell id="tWYqNwP9_KPiIrIVjZ15-45" value="Internet gateway" style="text;html=1;align=center;verticalAlign=middle;resizable=0;points=[];autosize=1;strokeColor=none;fillColor=none;" vertex="1" parent="1">
          <mxGeometry x="-155" y="288" width="110" height="30" as="geometry" />
        </mxCell>
        <mxCell id="tWYqNwP9_KPiIrIVjZ15-63" style="edgeStyle=orthogonalEdgeStyle;rounded=0;orthogonalLoop=1;jettySize=auto;html=1;startArrow=classicThin;startFill=1;" edge="1" parent="1" source="tWYqNwP9_KPiIrIVjZ15-42" target="tWYqNwP9_KPiIrIVjZ15-27">
          <mxGeometry relative="1" as="geometry">
            <Array as="points">
              <mxPoint x="-15" y="380" />
              <mxPoint x="60" y="380" />
            </Array>
          </mxGeometry>
        </mxCell>
        <mxCell id="tWYqNwP9_KPiIrIVjZ15-78" style="edgeStyle=none;rounded=0;orthogonalLoop=1;jettySize=auto;html=1;entryX=0.25;entryY=0;entryDx=0;entryDy=0;startArrow=classic;startFill=1;" edge="1" parent="1" target="tWYqNwP9_KPiIrIVjZ15-1">
          <mxGeometry relative="1" as="geometry">
            <mxPoint x="163" y="-20" as="sourcePoint" />
          </mxGeometry>
        </mxCell>
        <mxCell id="tWYqNwP9_KPiIrIVjZ15-68" value="DEVS" style="sketch=0;outlineConnect=0;fontColor=#232F3E;gradientColor=none;strokeColor=#232F3E;fillColor=#ffffff;dashed=0;verticalLabelPosition=bottom;verticalAlign=top;align=center;html=1;fontSize=12;fontStyle=0;aspect=fixed;shape=mxgraph.aws4.resourceIcon;resIcon=mxgraph.aws4.users;" vertex="1" parent="1">
          <mxGeometry x="130" y="-110" width="60" height="60" as="geometry" />
        </mxCell>
      </root>
    </mxGraphModel>
  </diagram>
</mxfile>
